# xmcd
#
# Track frame offsets:
#	150
#	17677
#	33257
#	44477
#	55785
#	74122
#	89595
#	104595
#	120467
#	134962
#
# Disc length: 1975 seconds
#
# Revision: 4
# Processed by: cddbd v1.4PL0 Copyright (c) Steve Scherf et al.
# Submitted via: MusicWizard 6.0.2
#
DISCID=9607b50a
DTITLE=The Mamas And The Papas - Dreamin' Live
DYEAR=1900
DGENRE=Beat
TTITLE0=Creeque Alley
TTITLE1=Monday, Monday
TTITLE2=California Dreamin'
TTITLE3=Go Where You Wanna Go
TTITLE4=Mississippi
TTITLE5=Dedicated To The One I Love
TTITLE6=Straight Shooter
TTITLE7=Sunday Will Never Be The Same
TTITLE8=I Saw Her Again Last Night
TTITLE9=Dream A Little Dream Of Me
EXTD=
EXTT0=
EXTT1=
EXTT2=
EXTT3=
EXTT4=
EXTT5=
EXTT6=
EXTT7=
EXTT8=
EXTT9=
PLAYORDER=
